<svg id="Layer_1" data-name="Layer 1" xmlns="http://www.w3.org/2000/svg" xmlns:xlink="http://www.w3.org/1999/xlink" viewBox="0 0 600 450"><defs><style>.cls-1,.cls-2{opacity:0.15;}.cls-1{fill:url(#linear-gradient);}.cls-2{fill:url(#linear-gradient-2);}.cls-114,.cls-115,.cls-116,.cls-117,.cls-118,.cls-119,.cls-120,.cls-121,.cls-122,.cls-123,.cls-124,.cls-125,.cls-126,.cls-127,.cls-128,.cls-129,.cls-130,.cls-131,.cls-132,.cls-3{opacity:0.05;}.cls-3{fill:url(#linear-gradient-3);}.cls-4{fill:#aeb3b7;}.cls-5{fill:#e6e6e6;}.cls-6{fill:#F99316;}.cls-7{fill:#d1d3d4;}.cls-15,.cls-8{fill:#fff;}.cls-9{opacity:0.5;}.cls-10{fill:#3dba85;}.cls-11{fill:url(#linear-gradient-4);}.cls-12{fill:#cccbcb;}.cls-13{fill:#e7473c;}.cls-14{fill:#f5f5f5;}.cls-15{font-size:9.7px;font-family:Muli-SemiBold, Muli;font-weight:600;}.cls-16{letter-spacing:-0.02em;}.cls-17{fill:#ccc;}.cls-18{fill:#808081;}.cls-19{fill:url(#linear-gradient-5);}.cls-20{fill:url(#linear-gradient-6);}.cls-21,.cls-22,.cls-25{opacity:0.03;}.cls-21{fill:url(#linear-gradient-7);}.cls-22{fill:url(#linear-gradient-8);}.cls-23{fill:url(#linear-gradient-9);}.cls-24,.cls-45{fill:#f2f2f2;}.cls-24{stroke:#ccc;stroke-miterlimit:10;}.cls-25{fill:url(#linear-gradient-10);}.cls-26{fill:#969696;}.cls-27{fill:#6d6e71;}.cls-28{fill:#cdd0d5;}.cls-29{fill:url(#linear-gradient-11);}.cls-30{fill:url(#linear-gradient-12);}.cls-31{fill:url(#linear-gradient-13);}.cls-32{fill:url(#linear-gradient-14);}.cls-33{fill:url(#linear-gradient-15);}.cls-34{fill:url(#linear-gradient-16);}.cls-35{fill:url(#linear-gradient-17);}.cls-36{fill:url(#linear-gradient-18);}.cls-37{fill:url(#linear-gradient-19);}.cls-38{fill:#939598;}.cls-39{fill:#bcbec0;}.cls-40{fill:url(#linear-gradient-20);}.cls-41{fill:url(#linear-gradient-21);}.cls-42{fill:url(#linear-gradient-22);}.cls-43{fill:url(#linear-gradient-23);}.cls-44{fill:url(#linear-gradient-24);}.cls-46{fill:#999;}.cls-47{fill:url(#linear-gradient-25);}.cls-48{fill:url(#linear-gradient-26);}.cls-49{fill:url(#linear-gradient-27);}.cls-50{fill:url(#linear-gradient-28);}.cls-51{fill:url(#linear-gradient-29);}.cls-52{fill:url(#linear-gradient-30);}.cls-53{fill:url(#linear-gradient-31);}.cls-54{fill:url(#linear-gradient-32);}.cls-55{fill:url(#linear-gradient-33);}.cls-56{fill:url(#linear-gradient-34);}.cls-57{fill:url(#linear-gradient-35);}.cls-58{fill:url(#linear-gradient-36);}.cls-59{fill:url(#linear-gradient-37);}.cls-60{fill:url(#linear-gradient-38);}.cls-61{fill:url(#linear-gradient-39);}.cls-62{fill:url(#linear-gradient-40);}.cls-63{fill:url(#linear-gradient-41);}.cls-64{fill:url(#linear-gradient-42);}.cls-65{fill:url(#linear-gradient-43);}.cls-66{fill:url(#linear-gradient-44);}.cls-67{fill:url(#linear-gradient-45);}.cls-68{fill:url(#linear-gradient-46);}.cls-69{fill:url(#linear-gradient-47);}.cls-70{fill:url(#linear-gradient-48);}.cls-71{fill:url(#linear-gradient-49);}.cls-72{fill:url(#linear-gradient-50);}.cls-73{fill:url(#linear-gradient-51);}.cls-74{fill:url(#linear-gradient-52);}.cls-75{fill:url(#linear-gradient-53);}.cls-76{fill:url(#linear-gradient-54);}.cls-77{fill:url(#linear-gradient-55);}.cls-78{fill:url(#linear-gradient-56);}.cls-79{fill:url(#linear-gradient-57);}.cls-80{fill:url(#linear-gradient-58);}.cls-81{fill:url(#linear-gradient-59);}.cls-82{fill:url(#linear-gradient-60);}.cls-83{fill:url(#linear-gradient-61);}.cls-84{fill:url(#linear-gradient-62);}.cls-85{fill:url(#linear-gradient-63);}.cls-86{fill:url(#linear-gradient-64);}.cls-87{fill:url(#linear-gradient-65);}.cls-88{fill:url(#linear-gradient-66);}.cls-89{fill:url(#linear-gradient-67);}.cls-90{fill:url(#linear-gradient-68);}.cls-91{fill:url(#linear-gradient-69);}.cls-92{fill:url(#linear-gradient-70);}.cls-93{fill:url(#linear-gradient-71);}.cls-94{fill:url(#linear-gradient-72);}.cls-95{fill:url(#linear-gradient-73);}.cls-96{fill:url(#linear-gradient-74);}.cls-97{fill:url(#linear-gradient-75);}.cls-98{fill:url(#linear-gradient-76);}.cls-99{fill:url(#linear-gradient-77);}.cls-100{fill:url(#linear-gradient-78);}.cls-101{fill:url(#linear-gradient-79);}.cls-102{fill:url(#linear-gradient-80);}.cls-103{fill:url(#linear-gradient-81);}.cls-104{fill:url(#linear-gradient-82);}.cls-105{fill:url(#linear-gradient-83);}.cls-106{fill:url(#linear-gradient-84);}.cls-107{fill:#a7a9ac;}.cls-108{fill:url(#linear-gradient-85);}.cls-109{fill:url(#linear-gradient-86);}.cls-110{fill:url(#linear-gradient-87);}.cls-111{fill:#666;}.cls-112{fill:url(#linear-gradient-88);}.cls-113{fill:url(#linear-gradient-89);}.cls-114{fill:url(#linear-gradient-90);}.cls-115{fill:url(#linear-gradient-91);}.cls-116{fill:url(#linear-gradient-92);}.cls-117{fill:url(#linear-gradient-93);}.cls-118{fill:url(#linear-gradient-94);}.cls-119{fill:url(#linear-gradient-95);}.cls-120{fill:url(#linear-gradient-96);}.cls-121{fill:url(#linear-gradient-97);}.cls-122{fill:url(#linear-gradient-98);}.cls-123{fill:url(#linear-gradient-99);}.cls-124{fill:url(#linear-gradient-100);}.cls-125{fill:url(#linear-gradient-101);}.cls-126{fill:url(#linear-gradient-102);}.cls-127{fill:url(#linear-gradient-103);}.cls-128{fill:url(#linear-gradient-104);}.cls-129{fill:url(#linear-gradient-105);}.cls-130{fill:url(#linear-gradient-106);}.cls-131{fill:url(#linear-gradient-107);}.cls-132{fill:url(#linear-gradient-108);}.cls-133{fill:url(#linear-gradient-109);}.cls-134{fill:url(#linear-gradient-110);}.cls-135{fill:url(#linear-gradient-111);}.cls-136{fill:url(#linear-gradient-112);}</style><linearGradient id="linear-gradient" x1="-101.41" y1="241.63" x2="289.95" y2="237.29" gradientUnits="userSpaceOnUse"><stop offset="0" stop-color="#d1d3d4" stop-opacity="0"/><stop offset="1" stop-color="#bcbec0"/></linearGradient><linearGradient id="linear-gradient-2" x1="241.71" y1="238.29" x2="587.14" y2="238.29" xlink:href="#linear-gradient"/><linearGradient id="linear-gradient-3" x1="56.12" y1="215.84" x2="557.16" y2="215.84" gradientUnits="userSpaceOnUse"><stop offset="0" stop-color="#0562e8"/><stop offset="1" stop-color="#0562e8"/></linearGradient><linearGradient id="linear-gradient-4" x1="208.41" y1="67.28" x2="226.31" y2="67.28" gradientTransform="translate(0.55 -2.1) rotate(0.43)" gradientUnits="userSpaceOnUse"><stop offset="0" stop-color="#c92a1d"/><stop offset="1" stop-color="#ec3931"/></linearGradient><linearGradient id="linear-gradient-5" x1="516.11" y1="409" x2="527.24" y2="409" xlink:href="#linear-gradient-3"/><linearGradient id="linear-gradient-6" x1="491.51" y1="409.01" x2="502.66" y2="409.01" xlink:href="#linear-gradient-3"/><linearGradient id="linear-gradient-7" x1="519.82" y1="409" x2="523.53" y2="409" gradientTransform="matrix(1, 0, 0, 1, 0, 0)" xlink:href="#linear-gradient-4"/><linearGradient id="linear-gradient-8" x1="495.25" y1="409" x2="498.95" y2="409" gradientTransform="matrix(1, 0, 0, 1, 0, 0)" xlink:href="#linear-gradient-4"/><linearGradient id="linear-gradient-9" x1="434.93" y1="326.92" x2="434.93" y2="352.58" gradientTransform="translate(-145.15 333.59) rotate(-37.5)" gradientUnits="userSpaceOnUse"><stop offset="0" stop-color="#999"/><stop offset="0.69" stop-color="#fff" stop-opacity="0"/></linearGradient><linearGradient id="linear-gradient-10" x1="519.53" y1="242.57" x2="539.53" y2="242.57" gradientTransform="matrix(1, 0, 0, 1, 0, 0)" xlink:href="#linear-gradient-4"/><linearGradient id="linear-gradient-11" x1="404.52" y1="90.84" x2="410.23" y2="90.84" xlink:href="#linear-gradient-3"/><linearGradient id="linear-gradient-12" x1="404.44" y1="84.11" x2="410.35" y2="84.11" xlink:href="#linear-gradient-3"/><linearGradient id="linear-gradient-13" x1="397.72" y1="55.04" x2="406.34" y2="55.04" xlink:href="#linear-gradient-3"/><linearGradient id="linear-gradient-14" x1="408.38" y1="55.04" x2="417" y2="55.04" xlink:href="#linear-gradient-3"/><linearGradient id="linear-gradient-15" x1="405.91" y1="53.99" x2="408.81" y2="53.99" xlink:href="#linear-gradient-3"/><linearGradient id="linear-gradient-16" x1="92.21" y1="118.89" x2="138.41" y2="118.89" xlink:href="#linear-gradient-3"/><linearGradient id="linear-gradient-17" x1="135.91" y1="148.49" x2="143.94" y2="148.49" xlink:href="#linear-gradient-3"/><linearGradient id="linear-gradient-18" x1="75.61" y1="159.6" x2="104.73" y2="159.6" xlink:href="#linear-gradient-3"/><linearGradient id="linear-gradient-19" x1="80.64" y1="159.48" x2="99.88" y2="159.48" xlink:href="#linear-gradient-3"/><linearGradient id="linear-gradient-20" x1="495.68" y1="149.79" x2="499.35" y2="149.79" gradientTransform="matrix(1, 0, 0, 1, 0, 0)" xlink:href="#linear-gradient-4"/><linearGradient id="linear-gradient-21" x1="501.18" y1="149.79" x2="504.84" y2="149.79" gradientTransform="matrix(1, 0, 0, 1, 0, 0)" xlink:href="#linear-gradient-4"/><linearGradient id="linear-gradient-22" x1="506.68" y1="149.79" x2="510.34" y2="149.79" gradientTransform="matrix(1, 0, 0, 1, 0, 0)" xlink:href="#linear-gradient-4"/><linearGradient id="linear-gradient-23" x1="512.18" y1="149.79" x2="515.84" y2="149.79" gradientTransform="matrix(1, 0, 0, 1, 0, 0)" xlink:href="#linear-gradient-4"/><linearGradient id="linear-gradient-24" x1="481.78" y1="141.71" x2="512.85" y2="141.71" gradientTransform="matrix(1, 0, 0, 1, 0, 0)" xlink:href="#linear-gradient-4"/><linearGradient id="linear-gradient-25" x1="175.32" y1="210.24" x2="319.6" y2="210.24" xlink:href="#linear-gradient-3"/><linearGradient id="linear-gradient-26" x1="371.53" y1="184.57" x2="420.77" y2="184.57" xlink:href="#linear-gradient-3"/><linearGradient id="linear-gradient-27" x1="187.86" y1="332.23" x2="438.87" y2="332.23" xlink:href="#linear-gradient-3"/><linearGradient id="linear-gradient-28" x1="210.95" y1="194.16" x2="377.74" y2="194.16" xlink:href="#linear-gradient-3"/><linearGradient id="linear-gradient-29" x1="197.76" y1="311.05" x2="231.62" y2="311.05" xlink:href="#linear-gradient-3"/><linearGradient id="linear-gradient-30" x1="399.13" y1="219.78" x2="403.26" y2="219.78" xlink:href="#linear-gradient-3"/><linearGradient id="linear-gradient-31" x1="258.42" y1="326.45" x2="416.44" y2="326.45" xlink:href="#linear-gradient-3"/><linearGradient id="linear-gradient-32" x1="351.03" y1="382.12" x2="356.12" y2="382.12" xlink:href="#linear-gradient-3"/><linearGradient id="linear-gradient-33" x1="211.49" y1="347.02" x2="215.35" y2="347.02" xlink:href="#linear-gradient-3"/><linearGradient id="linear-gradient-34" x1="205.65" y1="338.59" x2="209.19" y2="338.59" xlink:href="#linear-gradient-3"/><linearGradient id="linear-gradient-35" x1="193" y1="310.54" x2="195.39" y2="310.54" xlink:href="#linear-gradient-3"/><linearGradient id="linear-gradient-36" x1="225.32" y1="362.15" x2="229.76" y2="362.15" xlink:href="#linear-gradient-3"/><linearGradient id="linear-gradient-37" x1="200.6" y1="329.66" x2="203.78" y2="329.66" xlink:href="#linear-gradient-3"/><linearGradient id="linear-gradient-38" x1="196.37" y1="320.28" x2="199.17" y2="320.28" xlink:href="#linear-gradient-3"/><linearGradient id="linear-gradient-39" x1="341.32" y1="385.9" x2="346.51" y2="385.9" xlink:href="#linear-gradient-3"/><linearGradient id="linear-gradient-40" x1="321.17" y1="390.83" x2="326.43" y2="390.83" xlink:href="#linear-gradient-3"/><linearGradient id="linear-gradient-41" x1="331.35" y1="388.81" x2="336.59" y2="388.81" xlink:href="#linear-gradient-3"/><linearGradient id="linear-gradient-42" x1="233.22" y1="368.73" x2="237.89" y2="368.73" xlink:href="#linear-gradient-3"/><linearGradient id="linear-gradient-43" x1="241.68" y1="374.59" x2="246.54" y2="374.59" xlink:href="#linear-gradient-3"/><linearGradient id="linear-gradient-44" x1="260.05" y1="383.71" x2="263.75" y2="383.71" xlink:href="#linear-gradient-3"/><linearGradient id="linear-gradient-45" x1="250.65" y1="379.67" x2="255.67" y2="379.67" xlink:href="#linear-gradient-3"/><linearGradient id="linear-gradient-46" x1="218.06" y1="354.9" x2="222.23" y2="354.9" xlink:href="#linear-gradient-3"/><linearGradient id="linear-gradient-47" x1="211.76" y1="202.58" x2="215.64" y2="202.58" xlink:href="#linear-gradient-3"/><linearGradient id="linear-gradient-48" x1="225.64" y1="187.47" x2="230.08" y2="187.47" xlink:href="#linear-gradient-3"/><linearGradient id="linear-gradient-49" x1="218.36" y1="194.71" x2="222.54" y2="194.71" xlink:href="#linear-gradient-3"/><linearGradient id="linear-gradient-50" x1="233.55" y1="181.19" x2="237.1" y2="181.19" xlink:href="#linear-gradient-3"/><linearGradient id="linear-gradient-51" x1="280.7" y1="159.98" x2="285.46" y2="159.98" xlink:href="#linear-gradient-3"/><linearGradient id="linear-gradient-52" x1="310.92" y1="391.96" x2="316.11" y2="391.96" xlink:href="#linear-gradient-3"/><linearGradient id="linear-gradient-53" x1="205.88" y1="211.01" x2="209.44" y2="211.01" xlink:href="#linear-gradient-3"/><linearGradient id="linear-gradient-54" x1="200.79" y1="219.94" x2="203.99" y2="219.94" xlink:href="#linear-gradient-3"/><linearGradient id="linear-gradient-55" x1="190.56" y1="249.07" x2="192.55" y2="249.07" xlink:href="#linear-gradient-3"/><linearGradient id="linear-gradient-56" x1="196.51" y1="229.31" x2="199.33" y2="229.31" xlink:href="#linear-gradient-3"/><linearGradient id="linear-gradient-57" x1="193.09" y1="239.04" x2="195.51" y2="239.04" xlink:href="#linear-gradient-3"/><linearGradient id="linear-gradient-58" x1="417.9" y1="306.03" x2="420.12" y2="306.03" xlink:href="#linear-gradient-3"/><linearGradient id="linear-gradient-59" x1="410.54" y1="225.03" x2="413.53" y2="225.03" xlink:href="#linear-gradient-3"/><linearGradient id="linear-gradient-60" x1="393.24" y1="198.99" x2="397.26" y2="198.99" xlink:href="#linear-gradient-3"/><linearGradient id="linear-gradient-61" x1="360.37" y1="377.5" x2="365.32" y2="377.5" xlink:href="#linear-gradient-3"/><linearGradient id="linear-gradient-62" x1="399.76" y1="207.16" x2="403.46" y2="207.16" xlink:href="#linear-gradient-3"/><linearGradient id="linear-gradient-63" x1="301.07" y1="157.74" x2="306.28" y2="157.74" xlink:href="#linear-gradient-3"/><linearGradient id="linear-gradient-64" x1="290.45" y1="158.42" x2="295.96" y2="158.42" xlink:href="#linear-gradient-3"/><linearGradient id="linear-gradient-65" x1="311.44" y1="157.99" x2="316.68" y2="157.99" xlink:href="#linear-gradient-3"/><linearGradient id="linear-gradient-66" x1="341.9" y1="164.22" x2="347.09" y2="164.22" xlink:href="#linear-gradient-3"/><linearGradient id="linear-gradient-67" x1="331.91" y1="161.24" x2="337.17" y2="161.24" xlink:href="#linear-gradient-3"/><linearGradient id="linear-gradient-68" x1="321.73" y1="159.16" x2="326.99" y2="159.16" xlink:href="#linear-gradient-3"/><linearGradient id="linear-gradient-69" x1="405.54" y1="215.86" x2="408.89" y2="215.86" xlink:href="#linear-gradient-3"/><linearGradient id="linear-gradient-70" x1="392.77" y1="351.45" x2="396.81" y2="351.45" xlink:href="#linear-gradient-3"/><linearGradient id="linear-gradient-71" x1="399.33" y1="343.3" x2="403.06" y2="343.3" xlink:href="#linear-gradient-3"/><linearGradient id="linear-gradient-72" x1="405.17" y1="334.62" x2="408.56" y2="334.62" xlink:href="#linear-gradient-3"/><linearGradient id="linear-gradient-73" x1="369.27" y1="372.08" x2="374.04" y2="372.08" xlink:href="#linear-gradient-3"/><linearGradient id="linear-gradient-74" x1="410.24" y1="325.46" x2="413.26" y2="325.46" xlink:href="#linear-gradient-3"/><linearGradient id="linear-gradient-75" x1="377.68" y1="365.9" x2="382.24" y2="365.9" xlink:href="#linear-gradient-3"/><linearGradient id="linear-gradient-76" x1="385.53" y1="359" x2="389.85" y2="359" xlink:href="#linear-gradient-3"/><linearGradient id="linear-gradient-77" x1="420.51" y1="254.61" x2="422.26" y2="254.61" xlink:href="#linear-gradient-3"/><linearGradient id="linear-gradient-78" x1="414.5" y1="315.91" x2="417.13" y2="315.91" xlink:href="#linear-gradient-3"/><linearGradient id="linear-gradient-79" x1="414.73" y1="234.6" x2="417.32" y2="234.6" xlink:href="#linear-gradient-3"/><linearGradient id="linear-gradient-80" x1="418.06" y1="244.48" x2="420.24" y2="244.48" xlink:href="#linear-gradient-3"/><linearGradient id="linear-gradient-81" x1="422.08" y1="264.89" x2="423.39" y2="264.89" xlink:href="#linear-gradient-3"/><linearGradient id="linear-gradient-82" x1="420.43" y1="295.9" x2="422.2" y2="295.9" xlink:href="#linear-gradient-3"/><linearGradient id="linear-gradient-83" x1="422.04" y1="285.62" x2="423.37" y2="285.62" xlink:href="#linear-gradient-3"/><linearGradient id="linear-gradient-84" x1="422.74" y1="275.26" x2="423.64" y2="275.26" xlink:href="#linear-gradient-3"/><linearGradient id="linear-gradient-85" x1="248.7" y1="284.01" x2="269.18" y2="284.01" xlink:href="#linear-gradient-3"/><linearGradient id="linear-gradient-86" x1="299.55" y1="284.01" x2="320.04" y2="284.01" xlink:href="#linear-gradient-3"/><linearGradient id="linear-gradient-87" x1="350.41" y1="284.01" x2="370.89" y2="284.01" xlink:href="#linear-gradient-3"/><linearGradient id="linear-gradient-88" x1="296.74" y1="223.25" x2="309.25" y2="223.25" xlink:href="#linear-gradient-3"/><linearGradient id="linear-gradient-89" x1="306.08" y1="338.73" x2="306.08" y2="354.05" gradientUnits="userSpaceOnUse"><stop offset="0" stop-color="gray"/><stop offset="0.69" stop-color="#fff" stop-opacity="0"/></linearGradient><linearGradient id="linear-gradient-90" x1="17.87" y1="378.74" x2="24.54" y2="378.74" xlink:href="#linear-gradient-3"/><linearGradient id="linear-gradient-91" x1="27.08" y1="393.93" x2="32" y2="393.93" xlink:href="#linear-gradient-3"/><linearGradient id="linear-gradient-92" x1="561.81" y1="51.9" x2="568.48" y2="51.9" xlink:href="#linear-gradient-3"/><linearGradient id="linear-gradient-93" x1="572.68" y1="51.9" x2="577.6" y2="51.9" xlink:href="#linear-gradient-3"/><linearGradient id="linear-gradient-94" x1="568.48" y1="39.14" x2="571.96" y2="39.14" xlink:href="#linear-gradient-3"/><linearGradient id="linear-gradient-95" x1="19.3" y1="403.45" x2="23.1" y2="403.45" xlink:href="#linear-gradient-3"/><linearGradient id="linear-gradient-96" x1="60.13" y1="47.61" x2="66.8" y2="47.61" xlink:href="#linear-gradient-3"/><linearGradient id="linear-gradient-97" x1="51" y1="47.61" x2="55.93" y2="47.61" xlink:href="#linear-gradient-3"/><linearGradient id="linear-gradient-98" x1="56.65" y1="34.85" x2="60.13" y2="34.85" xlink:href="#linear-gradient-3"/><linearGradient id="linear-gradient-99" x1="80.04" y1="111.58" x2="86.72" y2="111.58" gradientTransform="translate(82.82)" xlink:href="#linear-gradient-3"/><linearGradient id="linear-gradient-100" x1="72.09" y1="214.99" x2="78.76" y2="214.99" gradientTransform="translate(82.82)" xlink:href="#linear-gradient-3"/><linearGradient id="linear-gradient-101" x1="70.87" y1="116.38" x2="74.35" y2="116.38" gradientTransform="translate(82.82)" xlink:href="#linear-gradient-3"/><linearGradient id="linear-gradient-102" x1="81.53" y1="209.57" x2="85.01" y2="209.57" gradientTransform="translate(82.82)" xlink:href="#linear-gradient-3"/><linearGradient id="linear-gradient-103" x1="474.98" y1="339.31" x2="481.65" y2="339.31" xlink:href="#linear-gradient-3"/><linearGradient id="linear-gradient-104" x1="490.4" y1="335.92" x2="493.88" y2="335.92" xlink:href="#linear-gradient-3"/><linearGradient id="linear-gradient-105" x1="376.61" y1="70.03" x2="380.09" y2="70.03" gradientTransform="translate(82.82)" xlink:href="#linear-gradient-3"/><linearGradient id="linear-gradient-106" x1="255.5" y1="34.52" x2="258.98" y2="34.52" gradientTransform="translate(82.82)" xlink:href="#linear-gradient-3"/><linearGradient id="linear-gradient-107" x1="264.25" y1="38" x2="267.73" y2="38" gradientTransform="translate(82.82)" xlink:href="#linear-gradient-3"/><linearGradient id="linear-gradient-108" x1="277.62" y1="33.55" x2="281.1" y2="33.55" gradientTransform="translate(82.82)" xlink:href="#linear-gradient-3"/><linearGradient id="linear-gradient-109" x1="508.26" y1="383.62" x2="528.66" y2="383.62" xlink:href="#linear-gradient-3"/><linearGradient id="linear-gradient-110" x1="508.26" y1="389.65" x2="508.69" y2="389.65" xlink:href="#linear-gradient-3"/><linearGradient id="linear-gradient-111" x1="510.55" y1="389.65" x2="516.07" y2="389.65" xlink:href="#linear-gradient-3"/><linearGradient id="linear-gradient-112" x1="517.95" y1="389.65" x2="522.27" y2="389.65" xlink:href="#linear-gradient-3"/></defs><title>Banking and Finance Illustration</title><path class="cls-1" d="M369.68,247.8,208.6,434.17a10.56,10.56,0,0,1-16.45,0L31.07,247.8a15,15,0,0,1,0-19L192.15,42.4a10.56,10.56,0,0,1,16.45,0L369.68,228.77A15,15,0,0,1,369.68,247.8Z"/><path class="cls-2" d="M583.74,247.8,422.65,434.17a10.56,10.56,0,0,1-16.45,0L245.12,247.8a15,15,0,0,1,0-19L406.2,42.4a10.56,10.56,0,0,1,16.45,0L583.74,228.77A15,15,0,0,1,583.74,247.8Z"/><path class="cls-3" d="M308.1,29.47A250.61,250.61,0,0,0,83.21,393.41a16.15,16.15,0,0,0,14.41,8.79h1a16.18,16.18,0,0,0,14.65-23.1,213.77,213.77,0,0,1-20.59-93.29c.8-117.63,97.21-213.16,214.84-212.93,118.25.22,214,96.14,214,214.42A213.64,213.64,0,0,1,501,379.17a16.17,16.17,0,0,0,14.68,23h0a16.19,16.19,0,0,0,14.44-8.83A249.5,249.5,0,0,0,557.16,280C557.16,142.12,445.78,30.26,308.1,29.47Z"/><rect class="cls-4" x="52.31" y="210.63" width="37.7" height="36.06"/><rect class="cls-5" x="54.76" y="204.08" width="62.44" height="39.34" rx="2.71"/><rect class="cls-6" x="54.76" y="207.68" width="62.44" height="6.5"/><rect class="cls-4" x="56.57" y="217.07" width="40.43" height="1.44"/><rect class="cls-6" x="56.57" y="219.6" width="40.43" height="1.44"/><rect class="cls-4" x="56.57" y="222.12" width="40.43" height="1.44"/><rect class="cls-6" x="56.57" y="224.65" width="24.54" height="1.44"/><rect class="cls-6" x="96.63" y="237.64" width="3.25" height="3.25"/><rect class="cls-6" x="101.51" y="237.64" width="3.25" height="3.25"/><rect class="cls-6" x="106.38" y="237.64" width="3.25" height="3.25"/><rect class="cls-6" x="111.25" y="237.64" width="3.25" height="3.25"/><path class="cls-7" d="M84.75,235c.16-1.18.35-2.37.53-3.55a4.75,4.75,0,0,1,.57-1.78,1.8,1.8,0,0,1,1.81-.85,2.53,2.53,0,0,1,1.67,1.13,4.7,4.7,0,0,1,.63,1.83,8.19,8.19,0,0,1,.15,1.89,1.8,1.8,0,0,1-1.39,1.73l-.6.11.07-.63a6.91,6.91,0,0,1,.27-1.29,2.32,2.32,0,0,1,.88-1.21,2.26,2.26,0,0,1,1.48-.32c.45,0,.85.14,1.2.16a4.59,4.59,0,0,0,3.87-1.64l.34-.43.38.39c.75.77,2.1.83,3.39.85l2,.08h2c2.63,0,5.25,0,7.89.14q-3.93.33-7.88.52l-2,.1-2,0a12.9,12.9,0,0,1-2-.1,3.68,3.68,0,0,1-2-.93l.72-.05a5.46,5.46,0,0,1-4.71,2c-.89-.1-1.64-.33-2.07,0a2.63,2.63,0,0,0-.76,1.81l-.52-.52a.93.93,0,0,0,.65-.9,10,10,0,0,0-.08-1.69,3.91,3.91,0,0,0-.44-1.57,1.89,1.89,0,0,0-1.17-.9,1.22,1.22,0,0,0-1.27.54,4.54,4.54,0,0,0-.64,1.56C85.35,232.65,85.06,233.82,84.75,235Z"/><path class="cls-8" d="M286.66,60.93a9.65,9.65,0,1,0,9.65-9.65A9.66,9.66,0,0,0,286.66,60.93Z"/><path class="cls-6" d="M296.31,71.48a10.55,10.55,0,1,1,10.55-10.55A10.56,10.56,0,0,1,296.31,71.48Zm0-19.94a9.39,9.39,0,1,0,9.39,9.39A9.4,9.4,0,0,0,296.31,51.54Z"/><path class="cls-6" d="M303.34,60.84a7,7,0,1,1-7-7A7,7,0,0,1,303.34,60.84Z"/><path class="cls-8" d="M299.32,58.75v-.28a1.27,1.27,0,0,0-.29-.85.91.91,0,0,0-.72-.36h-1.64V56.12H296v1.14h-1.64a.91.91,0,0,0-.73.36,1.27,1.27,0,0,0-.29.85v1.65a1.27,1.27,0,0,0,.29.85.91.91,0,0,0,.73.36h4c.17,0,.3.17.3.4v1.66c0,.22-.13.39-.3.39h-4c-.18,0-.31-.17-.31-.39v-.28h-.71v.28a1.23,1.23,0,0,0,.29.84.9.9,0,0,0,.73.37H296v1.14h.71V64.6h1.64a.89.89,0,0,0,.72-.37,1.23,1.23,0,0,0,.29-.84V61.73a1.25,1.25,0,0,0-.29-.85.88.88,0,0,0-.72-.36h-4c-.18,0-.31-.17-.31-.4V58.47c0-.22.13-.39.31-.39h4c.17,0,.3.17.3.39v.28Z"/><path class="cls-8" d="M301.64,41a9.65,9.65,0,1,0,9.65-9.65A9.66,9.66,0,0,0,301.64,41Z"/><path class="cls-6" d="M311.29,51.51A10.55,10.55,0,1,1,321.83,41,10.56,10.56,0,0,1,311.29,51.51Zm0-19.94A9.39,9.39,0,1,0,320.68,41,9.41,9.41,0,0,0,311.29,31.57Z"/><path class="cls-6" d="M318.32,40.88a7,7,0,1,1-7-7A7,7,0,0,1,318.32,40.88Z"/><path class="cls-8" d="M314.3,38.78V38.5a1.28,1.28,0,0,0-.29-.84.91.91,0,0,0-.73-.37h-1.64V36.15h-.71v1.14h-1.64a.88.88,0,0,0-.72.37,1.24,1.24,0,0,0-.3.84v1.65a1.28,1.28,0,0,0,.3.85.89.89,0,0,0,.72.36h4c.18,0,.31.17.31.4v1.66c0,.22-.13.39-.31.39h-4a.35.35,0,0,1-.31-.39v-.28h-.71v.28a1.28,1.28,0,0,0,.3.85.89.89,0,0,0,.72.36h1.64v1.14h.71V44.63h1.64a.93.93,0,0,0,.73-.36,1.33,1.33,0,0,0,.29-.85V41.76a1.33,1.33,0,0,0-.29-.85.93.93,0,0,0-.73-.36h-4c-.17,0-.31-.17-.31-.4V38.5a.35.35,0,0,1,.31-.39h4c.18,0,.31.17.31.39v.28Z"/><path class="cls-8" d="M326.6,51.78a9.65,9.65,0,1,0,9.65-9.65A9.66,9.66,0,0,0,326.6,51.78Z"/><path class="cls-6" d="M336.25,62.33a10.55,10.55,0,1,1,10.54-10.55A10.56,10.56,0,0,1,336.25,62.33Zm0-19.95a9.4,9.4,0,1,0,9.39,9.4A9.41,9.41,0,0,0,336.25,42.38Z"/><path class="cls-6" d="M343.28,51.69a7,7,0,1,1-7-7A7,7,0,0,1,343.28,51.69Z"/><path class="cls-8" d="M339.26,49.6v-.28a1.33,1.33,0,0,0-.29-.85.93.93,0,0,0-.73-.36H336.6V47h-.71v1.14h-1.64a.89.89,0,0,0-.72.36,1.28,1.28,0,0,0-.3.85V51a1.28,1.28,0,0,0,.3.85.89.89,0,0,0,.72.36h4c.18,0,.31.17.31.39v1.67c0,.22-.13.39-.31.39h-4a.35.35,0,0,1-.31-.39V54h-.71v.29a1.25,1.25,0,0,0,.3.84.88.88,0,0,0,.72.37h1.64v1.14h.71V55.45h1.64a.91.91,0,0,0,.73-.37,1.3,1.3,0,0,0,.29-.84V52.57a1.28,1.28,0,0,0-.29-.84.91.91,0,0,0-.73-.37h-4a.35.35,0,0,1-.31-.39V49.32c0-.23.14-.4.31-.4h4c.18,0,.31.17.31.4v.28Z"/><g class="cls-9"><rect class="cls-10" x="200.62" y="35.63" width="33.67" height="62.19" transform="translate(149.09 283.68) rotate(-89.57)"/><path class="cls-8" d="M188.31,51.34l58.53.44-.23,30.34-58.52-.44Z"/><path class="cls-10" d="M189.8,72.27a8.2,8.2,0,0,1,8.07,8.17l39.26.3a8.2,8.2,0,0,1,8-7.9l.09-11.59a8.2,8.2,0,0,1-8-8.18v0l-39.12-.29c0,.06,0,.12,0,.19A8.21,8.21,0,0,1,189.89,61h-.07l-.09,11.29Z"/><path class="cls-8" d="M227.35,66.8a9.89,9.89,0,1,0-10,9.82A9.9,9.9,0,0,0,227.35,66.8Z"/><path class="cls-11" d="M208.45,66.75a8.95,8.95,0,1,1,8.88,9A8.94,8.94,0,0,1,208.45,66.75Z"/><rect class="cls-8" x="231.75" y="64.58" width="1.27" height="4.54" transform="translate(163.79 298.72) rotate(-89.57)"/><rect class="cls-8" x="237.92" y="64.62" width="1.27" height="4.54" transform="translate(169.87 304.93) rotate(-89.57)"/><rect class="cls-8" x="196.36" y="64.31" width="1.27" height="4.54" transform="translate(128.94 263.07) rotate(-89.57)"/><rect class="cls-8" x="202.53" y="64.36" width="1.27" height="4.54" transform="translate(135.01 269.28) rotate(-89.57)"/></g><rect class="cls-10" x="196.41" y="30.59" width="33.67" height="62.2" transform="translate(149.96 274.47) rotate(-89.57)"/><path class="cls-8" d="M184.1,46.3l58.53.44-.23,30.34-58.53-.44Z"/><path class="cls-10" d="M185.6,67.23a8.2,8.2,0,0,1,8.06,8.17l39.26.3a8.21,8.21,0,0,1,8-7.9L241,56.22A8.21,8.21,0,0,1,233,48s0,0,0-.05l-39.13-.29c0,.06,0,.12,0,.19A8.21,8.21,0,0,1,185.68,56h-.07l-.09,11.29Z"/><path class="cls-8" d="M223.14,61.76a9.89,9.89,0,1,0-10,9.82A9.9,9.9,0,0,0,223.14,61.76Z"/><path class="cls-8" d="M204.24,61.7a8.95,8.95,0,1,1,8.88,9A8.95,8.95,0,0,1,204.24,61.7Z"/><rect class="cls-8" x="227.54" y="59.53" width="1.27" height="4.54" transform="translate(164.65 289.5) rotate(-89.57)"/><rect class="cls-8" x="233.71" y="59.58" width="1.27" height="4.53" transform="translate(170.73 295.72) rotate(-89.57)"/><rect class="cls-8" x="192.15" y="59.27" width="1.27" height="4.54" transform="translate(129.8 253.86) rotate(-89.57)"/><rect class="cls-8" x="198.32" y="59.31" width="1.27" height="4.54" transform="translate(135.88 260.07) rotate(-89.57)"/><path class="cls-10" d="M216.93,58.5v-.38a1.67,1.67,0,0,0-.38-1.12,1.21,1.21,0,0,0-1-.49H213.4V55h-1v1.52h-2.19a1.21,1.21,0,0,0-1,.48,1.72,1.72,0,0,0-.39,1.13v2.2a1.72,1.72,0,0,0,.39,1.13,1.19,1.19,0,0,0,1,.49h5.32c.23,0,.41.22.41.52v2.21c0,.3-.18.53-.41.53h-5.32c-.23,0-.41-.23-.41-.53V64.3h-.94v.37a1.69,1.69,0,0,0,.39,1.13,1.19,1.19,0,0,0,1,.49h2.19v1.52h1V66.29h2.18a1.21,1.21,0,0,0,1-.49,1.68,1.68,0,0,0,.38-1.13V62.46a1.72,1.72,0,0,0-.38-1.13,1.23,1.23,0,0,0-1-.48h-5.32c-.23,0-.41-.23-.41-.53v-2.2c0-.3.18-.52.41-.52h5.32c.23,0,.41.22.41.52v.38Z"/><rect class="cls-12" x="85.65" y="351.73" width="37.02" height="64.56" rx="5.95"/><rect class="cls-13" x="86.85" y="350.55" width="37.02" height="64.56" rx="5.95"/><path class="cls-14" d="M122.62,357.5v50.73a5.77,5.77,0,0,1-5.77,5.77h-23a5.77,5.77,0,0,1-5.77-5.77V357.5a5.77,5.77,0,0,1,5.77-5.77H97v1.57a1.85,1.85,0,0,0,1.86,1.85h13a1.85,1.85,0,0,0,1.86-1.85v-1.57h3.14A5.77,5.77,0,0,1,122.62,357.5Z"/><rect class="cls-5" x="92.94" y="410.95" width="24.96" height="1.29" rx="0.65"/><rect class="cls-4" x="91.14" y="358.83" width="14.41" height="14.41" rx="3.61"/><rect class="cls-13" x="106.84" y="359.69" width="12.25" height="0.52" rx="0.26"/><rect class="cls-13" x="106.84" y="363.39" width="13.28" height="0.52" rx="0.26"/><rect class="cls-13" x="106.84" y="366.86" width="12.25" height="0.52" rx="0.26"/><rect class="cls-13" x="106.84" y="370.55" width="13.28" height="0.52" rx="0.26"/><rect class="cls-4" x="91.02" y="396.46" width="2.58" height="11.48" rx="1.29"/><rect class="cls-13" x="96.32" y="399.9" width="2.58" height="8.03" rx="1.29"/><rect class="cls-4" x="101.53" y="393.59" width="2.58" height="14.35" rx="1.29"/><rect class="cls-13" x="106.83" y="398.04" width="2.58" height="9.9" rx="1.29"/><path class="cls-4" d="M113.37,407.94h0a1.36,1.36,0,0,1-1.33-1.29v-8.9a1.36,1.36,0,0,1,1.33-1.29h0a1.29,1.29,0,0,1,1.29,1.29v8.9A1.29,1.29,0,0,1,113.37,407.94Z"/><rect class="cls-13" x="117.34" y="399.47" width="2.58" height="8.46" rx="1.29"/><rect class="cls-13" x="92.29" y="375.89" width="26.26" height="14.9" rx="1.08"/><text class="cls-15" transform="translate(96.17 386.44)"><tspan class="cls-16">P</tspan><tspan x="6.22" y="0">ay</tspan></text><path class="cls-17" d="M543,327.26H514.88a2,2,0,0,1-2-2V308.79a2,2,0,0,1,2-2H546.7a2,2,0,0,1,2,2v12.78L551,330.1Z"/><path class="cls-17" d="M554.19,323.68h18.53a1.32,1.32,0,0,0,1.32-1.32V311.52a1.32,1.32,0,0,0-1.32-1.32h-21a1.32,1.32,0,0,0-1.31,1.32v8.41l-1.5,5.62Z"/><path class="cls-13" d="M541.88,326.12H513.74a2,2,0,0,1-2-2V307.65a2,2,0,0,1,2-2h31.82a2,2,0,0,1,2,2v12.78l2.28,8.53Z"/><path class="cls-18" d="M554.76,323.11h18.53a1.32,1.32,0,0,0,1.31-1.32V311a1.32,1.32,0,0,0-1.31-1.32h-21A1.32,1.32,0,0,0,551,311v8.42L549.52,325Z"/><circle class="cls-8" cx="520.19" cy="315.89" r="3.41"/><circle class="cls-8" cx="529.94" cy="315.89" r="3.41"/><circle class="cls-8" cx="539.68" cy="315.89" r="3.41"/><rect class="cls-8" x="552.9" y="311.91" width="12.12" height="1.17" rx="0.59"/><rect class="cls-8" x="552.9" y="314.78" width="10.16" height="1.17" rx="0.59"/><rect class="cls-8" x="552.9" y="317.56" width="11.34" height="1.17" rx="0.59"/><path class="cls-10" d="M92.3,296.81l0-1.55a7,7,0,0,0-1.53-4.67,4.93,4.93,0,0,0-3.94-2l-9-.13.09-6.26-3.89-.05L74,288.36l-9-.13a5,5,0,0,0-4,1.94,6.94,6.94,0,0,0-1.66,4.62l-.13,9a7,7,0,0,0,1.53,4.68,4.94,4.94,0,0,0,4,2.05l21.89.31c1,0,1.67.95,1.65,2.19l-.13,9.11c0,1.24-.75,2.16-1.71,2.14L64.45,324c-1,0-1.67-.95-1.66-2.19l0-1.54-3.9,0,0,1.53a7,7,0,0,0,1.54,4.68,5,5,0,0,0,4,2.05l9,.12-.09,6.26,3.9.06.09-6.26,9,.13a5,5,0,0,0,4-1.94,7.05,7.05,0,0,0,1.66-4.63l.13-9.11a7,7,0,0,0-1.53-4.67,4.93,4.93,0,0,0-4-2l-21.89-.32c-1,0-1.67-.95-1.65-2.19l.13-9c0-1.24.75-2.15,1.72-2.14l21.88.31c1,0,1.67,1,1.66,2.19l0,1.54Z"/><path class="cls-5" d="M522.26,389.8a.45.45,0,0,1,0,.11c-.32.87-.64,1.73-1,2.61a.37.37,0,0,1-.4.25h-3.13c-.27,0-.37,0-.3-.36.19-.85.35-1.7.49-2.56,0,0,0,0,0-.05h-1.89a.5.5,0,0,1,0,.12c-.19.8-.34,1.62-.48,2.44,0,.31-.15.42-.47.41H511c-.31,0-.45-.07-.44-.41q0-1.22,0-2.43a.53.53,0,0,1,0-.13h-1.86a.53.53,0,0,1,0,.13q0,1.21,0,2.43c0,.34-.13.42-.44.41h-3.88c-.27,0-.41,0-.46-.36-.12-.8-.28-1.6-.43-2.39-.07-.36,0-.53.42-.51.74,0,1.47,0,2.2,0s1.43,0,2.15,0v-1.84h-4.94c-.27,0-.31-.14-.35-.35-.16-.95-.34-1.89-.53-2.91h5.82v-1.84h-5.81c-.29,0-.42-.1-.47-.38-.14-.83-.28-1.67-.45-2.5-.07-.35.1-.38.38-.38h3.18c1,0,2.09,0,3.13,0h0v-1.86H492.8l-.92,0a7.8,7.8,0,0,0,.69,1.85c2.19,0,4.39,0,6.59,0,.32,0,.47.08.51.44.1.76.25,1.51.41,2.26.08.43,0,.58-.47.57-1.92,0-3.85,0-5.78,0a11.25,11.25,0,0,0,.72,1.85c1.85,0,3.7,0,5.56,0,.33,0,.47.09.52.43.12.8.25,1.6.42,2.39.08.37,0,.46-.37.45h-4.87a13.33,13.33,0,0,0,.71,1.85c1.53,0,3.05,0,4.57,0,.35,0,.48.14.52.45.13.8.24,1.6.41,2.39.08.36,0,.42-.35.42h-3.88a12.29,12.29,0,0,0,.71,1.86c1.18,0,2.36,0,3.53,0,.33,0,.49.08.54.44.07.63.21,1.25.33,1.87h1.87c-.11-.62-.2-1.25-.33-1.87-.07-.33,0-.44.36-.44q1.76,0,3.51,0c.32,0,.39.13.39.41,0,.63,0,1.27,0,1.9h1.86c0-.61,0-1.23,0-1.84,0-.34.07-.48.44-.47,1.21,0,2.42,0,3.64,0,.34,0,.48.05.37.45-.17.61-.26,1.24-.38,1.86h1.93c.12-.66.26-1.32.36-2,.05-.29.2-.33.43-.33.89,0,1.78,0,2.67,0,.38,0,.35.16.25.41l-.69,1.9a3.61,3.61,0,0,1,1.77.61c.06-.16.13-.31.19-.47.33-.94.67-1.88,1.09-2.78.13-.36.26-.71.38-1.06.37-.93.74-1.85,1.1-2.78a2.85,2.85,0,0,1,.22-.64Z"/><path class="cls-4" d="M502.9,396.92h16.66a3.61,3.61,0,0,1,1.77.61l.11.23a3,3,0,0,1,.23,1.5,2.29,2.29,0,0,1-1.38,1.39l-1.74,0H501.73l-1.72,0c-1.27.06-2.54.08-3.54-.91h-.06c0-.13,0-.28-.13-.36a3.71,3.71,0,0,0-.56-1.31c0-.15,0-.32-.13-.43a3.79,3.79,0,0,0-.37-1,.57.57,0,0,0-.22-.47,3.76,3.76,0,0,0-.56-1.41c0-.12,0-.26-.13-.33a3.26,3.26,0,0,0-.47-1.27l-.13-.36-.45-1.26L493,391a4.34,4.34,0,0,0-.44-1.17.81.81,0,0,0-.25-.57c0-.42-.3-.75-.37-1.15a.63.63,0,0,0-.21-.36,4,4,0,0,0-.57-1.41c0-.12,0-.25-.11-.33a3.87,3.87,0,0,0-.47-1.28l-.14-.34a6,6,0,0,0-.46-1.27c-.07-.16-.15-.32-.22-.47a3.1,3.1,0,0,0-.45-1.17.85.85,0,0,0-.16-.46c-.15-.42-.3-.84-.46-1.26a.61.61,0,0,0-.21-.36,6.1,6.1,0,0,0-.48-1.38l-.19-.36c-.16-.74-.16-.74-1.29-.67h-2.91a8,8,0,0,1-1.62-.1l-.35-.15-.68-.82-.15-.45a2,2,0,0,1,2.22-2.22h2.79c.61,0,1.23,0,1.84,0a6.18,6.18,0,0,1,2.1.25,2.39,2.39,0,0,0,.23.22c.38.22.5.66.8.95,0,.12,0,.25.11.33a4.1,4.1,0,0,0,.47,1.28c0,.13,0,.26.14.34a1.42,1.42,0,0,0,.34.82,7.8,7.8,0,0,0,.69,1.85,34.63,34.63,0,0,0,1.26,3.25,11.25,11.25,0,0,0,.72,1.85,34.63,34.63,0,0,0,1.26,3.25,13.33,13.33,0,0,0,.71,1.85c.38,1.1.79,2.19,1.27,3.25a12.29,12.29,0,0,0,.71,1.86c.22.63.47,1.25.65,1.89a.48.48,0,0,0,.56.42Z"/><path class="cls-19" d="M516.69,411.55a1.71,1.71,0,0,0-.33-.71,6.93,6.93,0,0,1,0-3.67A7.14,7.14,0,0,1,518,404.8a8.36,8.36,0,0,1,1.91-1.13l.8-.17a10.21,10.21,0,0,1,1.75-.05.7.7,0,0,0,.47.1l1.27.47.35.21.81.6.47.46.59.81.22.35.46,1.28a.71.71,0,0,0,.1.47,9.21,9.21,0,0,1-.05,1.74l-.17.8a6.06,6.06,0,0,1-3.59,3.59l-.8.17a9.29,9.29,0,0,1-1.75.05.7.7,0,0,0-.47-.1l-1.27-.46-.35-.21-.81-.6-.47-.46-.6-.82Zm6.84-2.55a1.81,1.81,0,0,0-1.8-1.85,1.85,1.85,0,1,0,0,3.7A1.81,1.81,0,0,0,523.53,409Z"/><path class="cls-20" d="M492.61,412.35l-.69-1.23-.1-.28-.3-1.37v-.58a8,8,0,0,1,.49-2.21,6,6,0,0,1,3.82-3.13,6.67,6.67,0,0,1,3.67.37l.95.6.37.3.67.71.35.49.5,1,.08.15a6.75,6.75,0,0,1,0,3.65l-.93,1.64-1,1a6.79,6.79,0,0,1-2.76,1.11h-.59l-1.49-.21-.48-.15-1-.49-.49-.35-.71-.68Zm4.5-5.2a1.85,1.85,0,1,0,0,3.7,1.85,1.85,0,0,0,0-3.7Z"/><path class="cls-4" d="M502.41,410.83a6.75,6.75,0,0,0,0-3.65l.72-.05h11.59l1.64,0a6.93,6.93,0,0,0,0,3.67l-1.06.05H503.12Z"/><path class="cls-4" d="M495.82,403.55,496,402c.12-.69.24-1.39.35-2.08l0-.22h.06c1,1,2.27,1,3.54.91-.08.66-.16,1.32-.25,2a1.22,1.22,0,0,0-.1.7l-.17.6A6.67,6.67,0,0,0,495.82,403.55Z"/><path class="cls-21" d="M523.53,409a1.81,1.81,0,0,1-1.81,1.85,1.85,1.85,0,1,1,0-3.7A1.81,1.81,0,0,1,523.53,409Z"/><path class="cls-22" d="M497.11,407.15a1.85,1.85,0,1,1-1.86,1.81A1.83,1.83,0,0,1,497.11,407.15Z"/><polygon class="cls-23" points="421.08 329.41 404.74 352.27 386.55 339.68 400.15 329.41 421.08 329.41"/><rect class="cls-24" x="519.53" y="215.84" width="40.79" height="53.46"/><rect class="cls-25" x="519.53" y="215.84" width="20" height="53.46"/><path class="cls-6" d="M556.46,252.46H523.39V232.07h33.07Zm-32.28-.79h31.49V232.86H524.18Z"/><rect class="cls-6" x="539.53" y="232.47" width="0.79" height="19.6"/><rect class="cls-6" x="545.27" y="232.47" width="0.79" height="19.6"/><rect class="cls-6" x="551.41" y="232.47" width="0.79" height="19.6"/><rect class="cls-6" x="523.79" y="232.07" width="32.27" height="0.79"/><rect class="cls-6" x="523.79" y="236.97" width="32.27" height="0.79"/><rect class="cls-6" x="523.79" y="241.87" width="32.27" height="0.79"/><rect class="cls-6" x="523.79" y="246.77" width="32.27" height="0.79"/><rect class="cls-6" x="523.79" y="251.67" width="32.27" height="0.79"/><rect class="cls-26" x="523.79" y="228.11" width="32.27" height="1.91"/><rect class="cls-7" x="529.83" y="255.63" width="26.24" height="1.91"/><rect class="cls-26" x="529.83" y="258.6" width="26.24" height="1.91"/><rect class="cls-7" x="529.83" y="261.57" width="26.24" height="1.91"/><rect class="cls-26" x="529.83" y="264.54" width="26.24" height="1.91"/><rect class="cls-26" x="523.79" y="255.63" width="4.31" height="1.91"/><rect class="cls-7" x="523.79" y="264.54" width="4.31" height="1.91"/><rect class="cls-7" x="523.79" y="225.87" width="32.27" height="0.79"/><rect class="cls-27" x="409.07" y="57.18" width="1.56" height="0.4"/><rect class="cls-27" x="409.07" y="50.26" width="1.56" height="0.4"/><rect class="cls-27" x="409.07" y="43.34" width="1.56" height="0.4"/><rect class="cls-27" x="409.07" y="36.42" width="1.56" height="0.4"/><rect class="cls-27" x="408.87" y="35.15" width="0.4" height="29.15"/><path class="cls-4" d="M383.13,95l3.12-11.91a4.3,4.3,0,0,1,1.9-2.57l9.63-6,.86,8.08L405.32,95Z"/><path class="cls-4" d="M431.66,95,428.54,83a4.33,4.33,0,0,0-1.89-2.56l-9.64-6-.86,8.08L409.47,95Z"/><path class="cls-5" d="M396.18,61.62s-1.85,2-2.75-2.73c-1-5-.93-7.75.79-8.33a1,1,0,0,1,1.42.57Z"/><path class="cls-28" d="M414.68,71.29l1.23.9A2.6,2.6,0,0,1,417,74.28v5.87a8.64,8.64,0,0,1-1.26,4.48L409.44,95h-2.19V73Z"/><path class="cls-28" d="M400,71.29l-1.23.9a2.6,2.6,0,0,0-1.07,2.09v5.87a8.64,8.64,0,0,0,1.26,4.48L405.21,95h2.19V73Z"/><polygon class="cls-29" points="410.23 94.96 408.81 86.72 407.4 86.72 407.36 86.72 405.94 86.72 404.52 94.96 407.36 94.96 407.4 94.96 410.23 94.96"/><path class="cls-30" d="M407.4,87.74l2.17-1.42a1.74,1.74,0,0,0,.67-2.06l-1-2.66a1.72,1.72,0,0,0-1.61-1.12h-.45a1.73,1.73,0,0,0-1.61,1.12l-1,2.66a1.74,1.74,0,0,0,.66,2.06l2.18,1.42Z"/><path class="cls-5" d="M400,68.71v3.56a4.3,4.3,0,0,0,1.59,3.33l3.1,2.53a4.31,4.31,0,0,0,5.43,0l3.15-2.55a4.3,4.3,0,0,0,1.6-3.35V68.37Z"/><path class="cls-17" d="M400,71.32A9.49,9.49,0,0,0,414.83,71V68.37L400,68.71Z"/><path class="cls-17" d="M407.25,73c6.78,0,12-7.11,12-18.89,0-14.69-4.31-18.1-12-18.1s-12,3.41-12,18.1C395.25,65.86,400.46,73,407.25,73Z"/><path class="cls-17" d="M418.49,61.62s1.85,2,2.75-2.73c1-5,.93-7.75-.8-8.33a1,1,0,0,0-1.42.57Z"/><path class="cls-5" d="M407.4,36V73c6.71-.1,11.84-7.19,11.84-18.88C419.24,39.49,415,36,407.4,36Z"/><path class="cls-31" d="M404.18,57.47h-4.31a2.16,2.16,0,0,1-2.15-2.16v-.53a2.16,2.16,0,0,1,2.15-2.16h4.31a2.16,2.16,0,0,1,2.16,2.16v.53A2.16,2.16,0,0,1,404.18,57.47Zm-4.31-4a1.3,1.3,0,0,0-1.29,1.3v.53a1.3,1.3,0,0,0,1.29,1.3h4.31a1.3,1.3,0,0,0,1.3-1.3v-.53a1.3,1.3,0,0,0-1.3-1.3Z"/><path class="cls-32" d="M414.85,57.47h-4.31a2.16,2.16,0,0,1-2.16-2.16v-.53a2.16,2.16,0,0,1,2.16-2.16h4.31A2.16,2.16,0,0,1,417,54.78v.53A2.16,2.16,0,0,1,414.85,57.47Zm-4.31-4a1.29,1.29,0,0,0-1.29,1.3v.53a1.29,1.29,0,0,0,1.29,1.3h4.31a1.3,1.3,0,0,0,1.29-1.3v-.53a1.3,1.3,0,0,0-1.29-1.3Z"/><rect class="cls-33" x="405.91" y="53.55" width="2.91" height="0.86"/><path class="cls-18" d="M417.9,37.21c1.36.78,2.46,3.43,3.13,5.49a9.59,9.59,0,0,1,.3,4.87l-2,10.34s-.55-3.82-.73-7c-.49-8.79-3.17-9.57-6-9.57a29.42,29.42,0,0,0-5.14,1.08h0a29.25,29.25,0,0,0-5.13-1.08c-2.86,0-5.55.78-6,9.57-.18,3.14-.72,7-.72,7l-2-10.28a9.61,9.61,0,0,1,.32-5c.69-2,1.79-4.63,3.09-5.46C403.89,33.52,410.29,33,417.9,37.21Z"/><path class="cls-5" d="M85.83,162.22V125.79A.92.92,0,0,1,86,126a4.28,4.28,0,0,0,4.36,2.94q25.74-.06,51.48,0h.69c2.42.08,4.25,1.05,5.15,3.42a.56.56,0,0,0,.27.33l0,8.77c-2.58,0-5.16,0-7.75,0a7.26,7.26,0,0,0-5.32,2.23,7,7,0,0,0-1.49,7.3,6.9,6.9,0,0,0,6.34,4.49l8.25,0c0,2.08,0,4.16-.05,6.25a1.57,1.57,0,0,0-.09.23,5.24,5.24,0,0,1-5.35,4c-17.14-.06-34.29,0-51.44,0a5,5,0,0,1-4.87-3.25C86.08,162.54,86.06,162.31,85.83,162.22Z"/><path class="cls-4" d="M147.91,161.73a6.59,6.59,0,0,1-.44,3.37A5,5,0,0,1,142.7,168H91.44a5.85,5.85,0,0,1-2.85-.56,5,5,0,0,1-2.52-3c0-.14,0-.33-.24-.4v-1.88c.23.09.25.32.33.51A5,5,0,0,0,91,166c17.15,0,34.3,0,51.44,0a5.24,5.24,0,0,0,5.35-4A1.57,1.57,0,0,1,147.91,161.73Z"/><path class="cls-4" d="M145.92,127.91a5.15,5.15,0,0,1,2,4.76.56.56,0,0,1-.27-.33c-.9-2.37-2.73-3.34-5.15-3.42h-.69q-25.74,0-51.48,0A4.28,4.28,0,0,1,86,126a.92.92,0,0,0-.13-.21v-2.26c0,.12.11.23.15.35a3.9,3.9,0,0,0,4.17,3c.68,0,1.37,0,2.06,0l8.5,0h33.43l4.27,0c1.16,0,2.32,0,3.48,0A6.57,6.57,0,0,1,145.92,127.91Z"/><path class="cls-7" d="M92.21,126.91c-.69,0-1.38,0-2.06,0a3.9,3.9,0,0,1-4.17-3c0-.12-.1-.23-.15-.35V121.9c.33-.27.3-.7.47-1.05A5,5,0,0,1,91,117.94c5.48,0,11,0,16.44,0l-.74.46-13.38,7.77A4.75,4.75,0,0,0,92.21,126.91Z"/><path class="cls-4" d="M147.93,141.44c1.56.36,2,.93,2,2.52v9.39a2,2,0,0,1-2,2.13l-8.25,0a6.9,6.9,0,0,1-6.34-4.49,7,7,0,0,1,1.49-7.3,7.26,7.26,0,0,1,5.32-2.23C142.77,141.42,145.35,141.44,147.93,141.44Zm-12,7a4,4,0,0,0,4,4,4,4,0,1,0,0-8.06A4,4,0,0,0,135.91,148.48Z"/><path class="cls-34" d="M92.21,126.91a4.75,4.75,0,0,1,1.14-.74l13.38-7.77.74-.46,8.59-5,3-1.73a2,2,0,0,1,3,.82c.89,1.5,1.79,3,2.63,4.54.26.48.52.51,1,.38,2.36-.65,4.74-1.27,7.11-1.9a2.11,2.11,0,0,1,2.93,1.66c.11.4.23.8.35,1.2.3,1.17.61,2.34.91,3.51.47,1.83,1.05,3.63,1.43,5.49l-4.27,0c-.49-2.23-1.12-4.44-1.75-6.63a.88.88,0,0,0-1.19-.62c-.93.24-1.86.47-2.78.73-1.52.44-1.36.13-.59,1.59a.62.62,0,0,0,.83.33c.51-.17,1.05-.27,1.56-.43s.65,0,.76.45c.39,1.53.81,3,1.22,4.58h-6.3c-2-3.43-4-6.87-5.94-10.29-.44-.76-1-.87-1.73-.42l-5.52,3.19c-.68.4-.9,1-.62,1.5s.85.63,1.57.22c1.47-.83,2.94-1.67,4.39-2.53.44-.26.68-.19.94.26,1.53,2.7,3.09,5.38,4.64,8.07H113a1.54,1.54,0,0,0-.5-.63,8,8,0,0,0-7.18-2.17,7.22,7.22,0,0,0-4.63,2.8Z"/><path class="cls-7" d="M138.41,126.92c-.38-1.86-1-3.66-1.43-5.49-.3-1.17-.61-2.34-.91-3.51,1.76,0,3.53-.06,5.3.07a5,5,0,0,1,4.55,4.92c0,1.67,0,3.33,0,5a6.57,6.57,0,0,0-4-1C140.73,126.94,139.57,126.92,138.41,126.92Z"/><path class="cls-8" d="M123.63,126.89c-1.55-2.69-3.11-5.37-4.64-8.07-.26-.45-.5-.52-.94-.26-1.45.86-2.92,1.7-4.39,2.53-.72.41-1.27.33-1.57-.22s-.06-1.1.62-1.5l5.52-3.19c.77-.45,1.29-.34,1.73.42,2,3.42,4,6.86,5.94,10.29Z"/><path class="cls-8" d="M100.71,126.89a7.22,7.22,0,0,1,4.63-2.8,8,8,0,0,1,7.18,2.17,1.54,1.54,0,0,1,.5.63Z"/><path class="cls-8" d="M132.2,126.89c-.41-1.53-.83-3-1.22-4.58-.11-.45-.31-.59-.76-.45s-1.05.26-1.56.43a.62.62,0,0,1-.83-.33c-.77-1.46-.93-1.15.59-1.59.92-.26,1.85-.49,2.78-.73a.88.88,0,0,1,1.19.62c.63,2.19,1.26,4.4,1.75,6.63Z"/><path class="cls-35" d="M135.91,148.48a4,4,0,0,1,4-4,4,4,0,1,1,0,8.06A4,4,0,0,1,135.91,148.48Z"/><path class="cls-8" d="M76.85,159.6a13.32,13.32,0,1,0,13.32-13.32A13.34,13.34,0,0,0,76.85,159.6Z"/><path class="cls-36" d="M90.17,174.15a14.56,14.56,0,1,1,14.56-14.55A14.57,14.57,0,0,1,90.17,174.15Zm0-27.52a13,13,0,1,0,13,13A13,13,0,0,0,90.17,146.63Z"/><path class="cls-37" d="M99.88,159.48a9.62,9.62,0,1,1-9.62-9.62A9.62,9.62,0,0,1,99.88,159.48Z"/><path class="cls-8" d="M92.21,163.53H87.42A.49.49,0,0,1,87,163v-.39H86V163a1.77,1.77,0,0,0,.4,1.17,1.26,1.26,0,0,0,1,.5h2.26v1.57h1v-1.57h2.26a1.28,1.28,0,0,0,1-.5,1.77,1.77,0,0,0,.4-1.17V160.7a1.75,1.75,0,0,0-.4-1.17,1.25,1.25,0,0,0-1-.5h-5.5a.5.5,0,0,1-.43-.55V156.2a.49.49,0,0,1,.43-.54h5.5c.25,0,.43.23.43.54v.39h1v-.39a1.77,1.77,0,0,0-.4-1.17,1.28,1.28,0,0,0-1-.5H90.66V153h-1v1.57H87.42a1.26,1.26,0,0,0-1,.5,1.77,1.77,0,0,0-.4,1.17v2.28a1.77,1.77,0,0,0,.4,1.17,1.23,1.23,0,0,0,1,.5h5.5c.25,0,.43.24.43.55V163c0,.31-.18.54-.43.54h-.71"/><rect class="cls-17" x="448.43" y="110.07" width="70.47" height="44.4" rx="3.06"/><rect class="cls-38" x="448.43" y="114.15" width="70.47" height="7.33"/><rect class="cls-39" x="450.46" y="124.74" width="45.62" height="1.63"/><rect class="cls-39" x="450.46" y="127.59" width="45.62" height="1.63"/><rect class="cls-39" x="450.46" y="130.44" width="45.62" height="1.63"/><rect class="cls-39" x="450.46" y="133.29" width="27.7" height="1.63"/><rect class="cls-40" x="495.68" y="147.96" width="3.67" height="3.67"/><rect class="cls-41" x="501.18" y="147.96" width="3.67" height="3.67"/><rect class="cls-42" x="506.68" y="147.96" width="3.67" height="3.67"/><rect class="cls-43" x="512.18" y="147.96" width="3.67" height="3.67"/><path class="cls-44" d="M482.27,145c.19-1.34.41-2.68.62-4a5.34,5.34,0,0,1,.65-2,2,2,0,0,1,2-.93,2.79,2.79,0,0,1,1.85,1.26,5.22,5.22,0,0,1,.7,2,9.64,9.64,0,0,1,.17,2.12,2,2,0,0,1-1.53,1.9l-.6.11.07-.63a7,7,0,0,1,.31-1.44,2.54,2.54,0,0,1,1-1.34,2.51,2.51,0,0,1,1.63-.34c.5,0,.95.15,1.36.18a5.21,5.21,0,0,0,4.42-1.88l.34-.43.38.39c.88.89,2.41,1,3.87,1l2.22.07h2.22c3,0,5.92,0,8.9.11q-4.44.34-8.9.55l-2.23.1-2.22,0a13.92,13.92,0,0,1-2.3-.12,4,4,0,0,1-2.24-1l.72,0a6.16,6.16,0,0,1-5.27,2.28c-1-.11-1.84-.39-2.36,0a3,3,0,0,0-.89,2.09l-.52-.52a1.1,1.1,0,0,0,.78-1.07,11.49,11.49,0,0,0-.09-1.91,4.54,4.54,0,0,0-.51-1.79,2.15,2.15,0,0,0-1.35-1,1.4,1.4,0,0,0-1.47.62,5.21,5.21,0,0,0-.72,1.78C482.93,142.32,482.61,143.64,482.27,145Z"/><rect class="cls-45" x="464.15" y="110.07" width="70.47" height="44.4" rx="3.06"/><path class="cls-17" d="M531.56,154.47l-28.06.08-28.06.17-7,.05a13.78,13.78,0,0,1-1.8,0,3.39,3.39,0,0,1-2.69-2.49,3.47,3.47,0,0,1-.11-1v-.87l-.08-14,0-14,0-7v-2.19a4.36,4.36,0,0,1,0-.51,3.71,3.71,0,0,1,.28-1,3.59,3.59,0,0,1,3.24-2.1l28.06.07,28.06.18,7,.05a13.67,13.67,0,0,1,1.79.06,3.28,3.28,0,0,1,1.63.84,3.15,3.15,0,0,1,.92,1.57,7.79,7.79,0,0,1,.09,1.79l-.08,14,0,14,0,7V151a3.74,3.74,0,0,1-.28,1.72A3.07,3.07,0,0,1,531.56,154.47Zm0,0a3.07,3.07,0,0,0,2.78-1.8,3.69,3.69,0,0,0,.27-1.71v-1.75l0-7,0-14-.08-14a7.84,7.84,0,0,0-.11-1.7,2.77,2.77,0,0,0-.84-1.4,2.93,2.93,0,0,0-1.45-.72,13.93,13.93,0,0,0-1.72,0l-7,0-28.06.18-28.06.07a2.59,2.59,0,0,0-2.35,1.5,2.88,2.88,0,0,0-.2.71,2.22,2.22,0,0,0,0,.37v2.19l0,7,0,14-.09,14a7.36,7.36,0,0,0,.08,1.66,2.73,2.73,0,0,0,2.16,2,13.09,13.09,0,0,0,1.69.06l7,0,28.06.17Z"/><path class="cls-45" d="M485.9,145l.8-3.95c.21-1,.55-2.24,1.54-2.62a2.18,2.18,0,0,1,2.48,1.06,6.22,6.22,0,0,1,.71,2.8,4.19,4.19,0,0,1-.05,1.58,1.41,1.41,0,0,1-1.07,1.05c.13-1,.37-2.11,1.26-2.54a4.24,4.24,0,0,1,2.29,0,5.69,5.69,0,0,0,5.05-2.05c1,1,2.47,1,3.83,1.06.87,0,1.74,0,2.62,0q5.55,0,11.09-.27"/><path class="cls-39" d="M485.9,145c.19-1.34.41-2.68.63-4a5.34,5.34,0,0,1,.65-2,2,2,0,0,1,2-.93,2.8,2.8,0,0,1,1.84,1.26,5.41,5.41,0,0,1,.71,2,10.31,10.31,0,0,1,.16,2.12,2,2,0,0,1-1.53,1.9l-.6.11.08-.63a7,7,0,0,1,.3-1.44,2.61,2.61,0,0,1,1-1.34,2.5,2.5,0,0,1,1.63-.34c.5,0,.95.15,1.35.18a5.23,5.23,0,0,0,4.43-1.88l.34-.43.38.39c.88.89,2.41,1,3.86,1l2.23.07h2.22c3,0,5.92,0,8.9.11q-4.44.34-8.9.55l-2.23.1-2.23,0a13.8,13.8,0,0,1-2.29-.12,4,4,0,0,1-2.24-1l.71,0a6.13,6.13,0,0,1-5.26,2.28c-1-.11-1.85-.39-2.37,0a3,3,0,0,0-.88,2.09l-.52-.52a1.11,1.11,0,0,0,.78-1.07,11.49,11.49,0,0,0-.09-1.91,4.71,4.71,0,0,0-.51-1.79,2.18,2.18,0,0,0-1.35-1,1.42,1.42,0,0,0-1.48.62,5.42,5.42,0,0,0-.72,1.78C486.56,142.32,486.25,143.64,485.9,145Z"/><path class="cls-39" d="M495.6,120.25a6.47,6.47,0,1,1-6.47-6.48A6.46,6.46,0,0,1,495.6,120.25Z"/><path class="cls-39" d="M482.06,120.25a6.44,6.44,0,0,0,1.85,4.52,6.48,6.48,0,1,1,0-9A6.46,6.46,0,0,0,482.06,120.25Z"/><rect class="cls-46" x="515.84" y="114.47" width="15.2" height="11.55" rx="1.97"/><rect class="cls-45" x="515.84" y="119.86" width="15.2" height="0.39"/><rect class="cls-45" x="521.46" y="120.05" width="11.55" height="0.39" transform="translate(406.98 647.48) rotate(-90)"/><rect class="cls-45" x="517.54" y="120.05" width="11.55" height="0.39" transform="translate(403.06 643.56) rotate(-90)"/><rect class="cls-45" x="513.61" y="120.05" width="11.55" height="0.39" transform="translate(399.14 639.64) rotate(-90)"/><rect class="cls-10" x="470.29" y="149.79" width="9.41" height="2.84"/><rect class="cls-10" x="486.68" y="149.79" width="9.41" height="2.84"/><rect class="cls-10" x="503.07" y="149.79" width="9.41" height="2.84"/><path class="cls-46" d="M540.6,140.54V154h-2V141a7.55,7.55,0,0,0-15.09,0V154h-2V140.54a9.56,9.56,0,0,1,19.11,0Z"/><rect class="cls-10" x="516.37" y="145.14" width="29.36" height="27.11" rx="3.97"/><path class="cls-45" d="M536.85,156.45a5.81,5.81,0,0,1-4.46,5.65v5a1.25,1.25,0,0,1-2.49,0v-4.94a5.8,5.8,0,1,1,7-5.69Z"/><circle class="cls-17" cx="307.1" cy="279.68" r="100.88" transform="translate(-45.08 499.91) rotate(-74.34)"/><path class="cls-47" d="M176.3,276.48A130.68,130.68,0,0,1,318.65,144.61l1-.88q-3.71-.36-7.47-.5A131.76,131.76,0,0,0,175.42,269.87q-.15,3.75-.07,7.49Z"/><path class="cls-48" d="M420.07,208.83l.7-.66a133.08,133.08,0,0,0-48.5-47.86l-.74.68a131.16,131.16,0,0,1,48.54,47.84Z"/><path class="cls-49" d="M436.89,258.6A130.74,130.74,0,0,1,396,370.91c-52.94,49-135.9,45.87-184.94-7.07a130.67,130.67,0,0,1-22.5-33.39l-.73.68a131.84,131.84,0,0,0,249.92-73.35Z"/><path class="cls-50" d="M212,222.76A108.47,108.47,0,0,1,377.15,192.1l.59-.64a109.32,109.32,0,0,0-151.68,10A110.37,110.37,0,0,0,211,222.76Z"/><path class="cls-51" d="M198.86,268.65h-.93a113.32,113.32,0,0,0,0,11.66A108.6,108.6,0,0,0,231,353.44l.58-.64A108.34,108.34,0,0,1,198.86,268.65Z"/><path class="cls-52" d="M403.26,222.76q-1.65-3-3.5-6l-.63.71c1.08,1.73,2.1,3.49,3.07,5.26Z"/><path class="cls-53" d="M416.25,268.65h-.92a108.39,108.39,0,0,1-156.27,103.5l-.64.71A109.38,109.38,0,0,0,416.3,269.5C416.29,269.22,416.27,268.93,416.25,268.65Z"/><path class="cls-54" d="M351.36,383.57c1.59-.67,3.2-1.38,4.76-2.11l-.37-.79c-1.55.73-3.14,1.44-4.72,2.1Z"/><path class="cls-55" d="M212.18,344.71l-.69.52c1,1.38,2.1,2.76,3.19,4.1l.67-.55C214.27,347.46,213.21,346.09,212.18,344.71Z"/><path class="cls-56" d="M206.39,336.18l-.74.45c.9,1.47,1.85,2.94,2.82,4.36l.72-.48C208.23,339.09,207.29,337.64,206.39,336.18Z"/><path class="cls-57" d="M193.83,307.94l-.83.24c.49,1.66,1,3.33,1.58,5l.81-.28C194.84,311.25,194.32,309.59,193.83,307.94Z"/><path class="cls-58" d="M225.92,360.1l-.6.63c1.26,1.18,2.56,2.35,3.88,3.48l.56-.66C228.46,362.43,227.16,361.27,225.92,360.1Z"/><path class="cls-59" d="M201.37,327.16l-.77.39c.77,1.54,1.59,3.09,2.43,4.6l.75-.42C203,330.23,202.14,328.69,201.37,327.16Z"/><path class="cls-60" d="M197.18,317.72l-.81.32c.63,1.6,1.31,3.22,2,4.8l.79-.35C198.47,320.92,197.8,319.32,197.18,317.72Z"/><path class="cls-61" d="M341.59,387.15c1.64-.52,3.3-1.09,4.92-1.68l-.3-.81c-1.61.58-3.25,1.15-4.89,1.66Z"/><path class="cls-62" d="M321.17,390.79l.11.86c1.71-.22,3.45-.49,5.15-.79l-.15-.85C324.59,390.31,322.87,390.57,321.17,390.79Z"/><path class="cls-63" d="M331.35,389l.18.85c1.69-.38,3.39-.79,5.06-1.24l-.23-.84C334.71,388.22,333,388.63,331.35,389Z"/><path class="cls-64" d="M233.75,366.83l-.53.68c1.36,1.07,2.76,2.12,4.16,3.13l.51-.71C236.49,368.93,235.1,367.89,233.75,366.83Z"/><path class="cls-65" d="M242.15,372.85l-.47.73c1.45.94,2.94,1.87,4.42,2.75l.44-.75C245.07,374.71,243.59,373.79,242.15,372.85Z"/><path class="cls-66" d="M263.62,383.88c-1.08-.42-2.17-.86-3.23-1.31l-.34.8c1.22.52,2.46,1,3.7,1.49Z"/><path class="cls-67" d="M251.05,378.11l-.4.77c1.52.81,3.09,1.6,4.65,2.35l.37-.79C254.12,379.7,252.57,378.92,251.05,378.11Z"/><path class="cls-68" d="M218.71,352.71l-.65.57c1.15,1.29,2.35,2.57,3.55,3.81l.62-.61C221,355.25,219.85,354,218.71,352.71Z"/><path class="cls-69" d="M215.64,200.82l-.67-.55c-1.1,1.34-2.18,2.72-3.21,4.1l.69.52C213.48,203.52,214.55,202.15,215.64,200.82Z"/><path class="cls-70" d="M229.52,185.43c-1.31,1.12-2.61,2.28-3.88,3.46l.6.63c1.25-1.17,2.54-2.32,3.84-3.44Z"/><path class="cls-71" d="M221.92,192.53c-1.2,1.23-2.4,2.5-3.56,3.79l.65.58c1.14-1.28,2.33-2.55,3.53-3.77Z"/><path class="cls-72" d="M237,179.57c-1.15.83-2.3,1.69-3.42,2.56l.53.69c1-.78,2-1.53,3-2.28Z"/><path class="cls-73" d="M285.46,159.94l-.15-.85c-1.54.27-3.08.58-4.61.91l.11.86C282.35,160.53,283.91,160.21,285.46,159.94Z"/><path class="cls-74" d="M310.92,391.69l.11.86c1.69-.07,3.4-.18,5.08-.33l-.08-.86C314.34,391.51,312.62,391.62,310.92,391.69Z"/><path class="cls-75" d="M208.73,208.6c-1,1.43-1.93,2.9-2.85,4.36l.74.46c.91-1.46,1.85-2.91,2.82-4.33Z"/><path class="cls-76" d="M203.24,217.45c-.85,1.51-1.67,3.05-2.45,4.6l.77.39c.78-1.54,1.59-3.07,2.43-4.57Z"/><path class="cls-77" d="M191.71,246.43c-.42,1.68-.81,3.4-1.15,5.1l.85.17c.34-1.69.73-3.39,1.14-5Z"/><path class="cls-78" d="M198.54,226.75c-.71,1.58-1.39,3.2-2,4.8l.8.32c.64-1.59,1.32-3.2,2-4.76Z"/><path class="cls-79" d="M194.69,236.44c-.57,1.63-1.11,3.3-1.6,5l.83.25c.49-1.65,1-3.3,1.59-4.93Z"/><path class="cls-80" d="M418.73,308.65c.5-1.66,1-3.36,1.39-5l-.84-.21c-.42,1.66-.89,3.34-1.38,5Z"/><path class="cls-81" d="M412.74,227.56l.79-.35c-.7-1.58-1.44-3.16-2.21-4.71l-.78.38C411.31,224.42,412.05,226,412.74,227.56Z"/><path class="cls-82" d="M396.59,201.25l.67-.55c-1.09-1.34-2.23-2.67-3.38-4l-.64.58C394.38,198.59,395.5,199.92,396.59,201.25Z"/><path class="cls-83" d="M360.78,379.13c1.52-.8,3.05-1.65,4.54-2.52l-.44-.75c-1.48.87-3,1.71-4.51,2.51Z"/><path class="cls-84" d="M402.74,209.52l.72-.48c-1-1.43-2-2.85-3-4.24l-.69.52C400.78,206.69,401.78,208.11,402.74,209.52Z"/><path class="cls-85" d="M306.28,158.12v-.86c-1.73,0-3.48,0-5.21.1l0,.87C302.83,158.15,304.57,158.12,306.28,158.12Z"/><path class="cls-86" d="M290.57,159.15l.25,0c1.7-.23,3.43-.41,5.14-.56l-.08-.86c-1.72.15-3.46.33-5.18.56l-.25,0Z"/><path class="cls-87" d="M316.6,158.6l.08-.86c-1.72-.16-3.47-.28-5.2-.36l0,.87C313.16,158.32,314.89,158.44,316.6,158.6Z"/><path class="cls-88" d="M346.78,165.49l.31-.81c-1.63-.61-3.28-1.19-4.93-1.72l-.26.82C343.53,164.31,345.17,164.88,346.78,165.49Z"/><path class="cls-89" d="M336.94,162.29l.23-.83c-1.67-.46-3.37-.89-5.06-1.28l-.2.85C333.59,161.41,335.28,161.84,336.94,162.29Z"/><path class="cls-90" d="M326.84,160l.15-.85c-1.7-.31-3.43-.59-5.14-.82l-.12.86C323.43,159.41,325.15,159.68,326.84,160Z"/><path class="cls-91" d="M408.14,218.31l.75-.42c-.83-1.51-1.71-3-2.61-4.49l-.74.46C406.43,215.31,407.31,216.81,408.14,218.31Z"/><path class="cls-92" d="M393.41,353.7c1.16-1.28,2.3-2.61,3.4-3.95l-.67-.55c-1.09,1.33-2.23,2.65-3.37,3.92Z"/><path class="cls-93" d="M400,345.66c1-1.38,2.06-2.8,3-4.23l-.71-.49c-1,1.42-2,2.83-3,4.2Z"/><path class="cls-94" d="M405.91,337.07c.91-1.47,1.8-3,2.65-4.48l-.75-.43c-.85,1.5-1.73,3-2.64,4.45Z"/><path class="cls-95" d="M369.74,373.89c1.45-.93,2.89-1.91,4.3-2.91l-.5-.71c-1.4,1-2.83,2-4.27,2.89Z"/><path class="cls-96" d="M411,328c.79-1.54,1.54-3.12,2.25-4.7l-.79-.35c-.7,1.56-1.45,3.13-2.23,4.66Z"/><path class="cls-97" d="M378.21,367.87c1.36-1.06,2.72-2.16,4-3.29l-.56-.66c-1.31,1.12-2.65,2.22-4,3.27Z"/><path class="cls-98" d="M386.12,361.12c1.27-1.18,2.52-2.4,3.73-3.63l-.62-.6c-1.2,1.22-2.44,2.43-3.7,3.6Z"/><path class="cls-99" d="M421.41,257.24l.85-.13c-.26-1.72-.56-3.44-.9-5.13l-.85.17C420.84,253.82,421.15,255.53,421.41,257.24Z"/><path class="cls-100" d="M415.3,318.49c.64-1.6,1.26-3.25,1.83-4.88l-.82-.29c-.57,1.63-1.18,3.26-1.81,4.85Z"/><path class="cls-101" d="M416.5,237.18l.82-.28c-.55-1.63-1.15-3.28-1.78-4.89l-.81.32C415.35,233.93,416,235.56,416.5,237.18Z"/><path class="cls-102" d="M419.4,247.1l.84-.2c-.41-1.68-.86-3.37-1.35-5l-.83.24C418.54,243.76,419,245.44,419.4,247.1Z"/><path class="cls-103" d="M423.39,267.45c-.11-1.71-.26-3.46-.45-5.18l-.86.09c.18,1.72.33,3.45.44,5.15Z"/><path class="cls-104" d="M421.27,298.53c.35-1.69.66-3.42.93-5.12l-.85-.14c-.27,1.69-.58,3.41-.92,5.09Z"/><path class="cls-105" d="M422.9,288.25c.19-1.72.35-3.46.47-5.19l-.87-.06c-.11,1.71-.27,3.44-.46,5.15Z"/><path class="cls-106" d="M423.61,277.86c0-1.73,0-3.48,0-5.2h-.86c0,1.72,0,3.45,0,5.17Z"/><circle class="cls-8" cx="307.1" cy="274.9" r="100.88" transform="translate(-40.48 496.42) rotate(-74.34)"/><rect class="cls-46" x="219.44" y="331.85" width="167.1" height="7.83"/><polygon class="cls-107" points="400.15 329.41 386.55 339.68 386.55 331.85 400.15 321.58 400.15 329.41"/><polygon class="cls-7" points="386.55 331.85 219.44 331.85 233.04 321.58 400.15 321.58 386.55 331.85"/><rect class="cls-46" x="235.69" y="321.58" width="143.93" height="7.83"/><polygon class="cls-107" points="389.38 322.03 379.62 329.41 379.62 321.58 389.38 314.2 389.38 322.03"/><polygon class="cls-7" points="379.62 321.58 235.69 321.58 245.45 314.2 389.38 314.2 379.62 321.58"/><rect class="cls-108" x="248.7" y="248.16" width="20.49" height="71.7"/><polygon class="cls-107" points="274.61 315.76 269.18 319.86 269.18 248.16 274.61 244.06 274.61 315.76"/><polygon class="cls-7" points="269.18 248.16 248.7 248.16 254.13 244.06 274.61 244.06 269.18 248.16"/><rect class="cls-109" x="299.55" y="248.16" width="20.49" height="71.7"/><polygon class="cls-107" points="325.47 315.76 320.04 319.86 320.04 248.16 325.47 244.06 325.47 315.76"/><polygon class="cls-7" points="320.04 248.16 299.55 248.16 304.98 244.06 325.47 244.06 320.04 248.16"/><rect class="cls-110" x="350.41" y="248.16" width="20.49" height="71.7"/><polygon class="cls-107" points="376.32 315.76 370.89 319.86 370.89 248.16 376.32 244.06 376.32 315.76"/><polygon class="cls-7" points="370.89 248.16 350.41 248.16 355.84 244.06 376.32 244.06 370.89 248.16"/><rect class="cls-7" x="219.44" y="243.53" width="167.1" height="7.83"/><polygon class="cls-111" points="400.15 241.08 386.55 251.36 386.55 243.53 400.15 233.25 400.15 241.08"/><polygon class="cls-5" points="386.55 243.53 219.44 243.53 233.04 233.25 400.15 233.25 386.55 243.53"/><polygon class="cls-46" points="386.55 243.53 386.55 251.36 219.44 251.36 219.44 243.53 303 195.13 314.44 201.99 386.55 243.53"/><polygon class="cls-46" points="316.6 184.85 316.6 192.69 314.44 201.99 303 195.13 316.6 184.85"/><polygon class="cls-17" points="316.6 184.85 303 195.13 219.44 243.53 233.04 233.25 316.6 184.85"/><polygon class="cls-7" points="400.15 233.25 400.15 241.08 386.55 251.36 386.55 243.53 400.15 233.25"/><polygon class="cls-5" points="400.15 233.25 386.55 243.53 314.44 201.99 303 195.13 316.6 184.85 400.15 233.25"/><rect class="cls-7" x="219.44" y="243.53" width="167.11" height="7.83"/><circle class="cls-5" cx="302.99" cy="223.25" r="13.28"/><path class="cls-112" d="M309.25,218.72v-.58a2.64,2.64,0,0,0-.61-1.76,1.85,1.85,0,0,0-1.5-.75h-3.41v-2.37h-1.47v2.37h-3.41a1.86,1.86,0,0,0-1.51.75,2.63,2.63,0,0,0-.6,1.76v3.43a2.65,2.65,0,0,0,.6,1.76,1.89,1.89,0,0,0,1.51.75h8.29c.36,0,.64.35.64.82v3.45c0,.47-.28.82-.64.82h-8.29c-.37,0-.64-.35-.64-.82v-.58h-1.47v.58a2.63,2.63,0,0,0,.6,1.76,1.87,1.87,0,0,0,1.51.76h3.41v2.37h1.47v-2.37h3.41a1.86,1.86,0,0,0,1.5-.76,2.64,2.64,0,0,0,.61-1.76V224.9a2.64,2.64,0,0,0-.61-1.76,1.85,1.85,0,0,0-1.5-.75h-8.29c-.37,0-.64-.36-.64-.82v-3.43c0-.47.27-.82.64-.82h8.29c.36,0,.64.35.64.82v.58Z"/><polygon class="cls-113" points="404.74 352.27 207.42 352.11 219.44 339.68 386.55 339.68 404.74 352.27"/><circle class="cls-114" cx="21.2" cy="378.74" r="3.34"/><circle class="cls-115" cx="29.54" cy="393.93" r="2.46"/><circle class="cls-116" cx="565.14" cy="51.9" r="3.34"/><circle class="cls-117" cx="575.14" cy="51.9" r="2.46"/><circle class="cls-118" cx="570.22" cy="39.14" r="1.74"/><circle class="cls-119" cx="21.2" cy="403.45" r="1.9"/><circle class="cls-120" cx="63.46" cy="47.61" r="3.34"/><circle class="cls-121" cx="53.46" cy="47.61" r="2.46"/><circle class="cls-122" cx="58.39" cy="34.85" r="1.74"/><circle class="cls-123" cx="166.2" cy="111.58" r="3.34"/><circle class="cls-124" cx="158.25" cy="214.99" r="3.34"/><circle class="cls-125" cx="155.43" cy="116.38" r="1.74"/><circle class="cls-126" cx="166.09" cy="209.57" r="1.74"/><circle class="cls-127" cx="478.32" cy="339.31" r="3.34"/><circle class="cls-128" cx="492.14" cy="335.92" r="1.74"/><circle class="cls-129" cx="461.17" cy="70.03" r="1.74"/><circle class="cls-130" cx="340.07" cy="34.52" r="1.74"/><circle class="cls-6" cx="347.09" cy="150.16" r="5.27"/><circle class="cls-6" cx="431.99" cy="236.53" r="5.27"/><circle class="cls-6" cx="180.05" cy="307.94" r="5.27"/><circle class="cls-131" cx="348.81" cy="38" r="1.74"/><circle class="cls-132" cx="362.18" cy="33.55" r="1.74"/><path class="cls-133" d="M528,377.49l-.45-.05H508.26v1.86c.3,0,.45.08.44.44,0,.81,0,1.62,0,2.43,0,.31-.1.4-.4.4h0v1.84h.07c.27,0,.37.09.37.37q0,1.28,0,2.55c0,.24-.09.34-.34.34h-.1v1.84c.27,0,.41.05.43.29h1.86c0-.24.16-.3.43-.29h4.69c.27,0,.43,0,.39.29H518c.06-.23.18-.29.41-.29h3.54c.26,0,.42.05.36.29h2a1.43,1.43,0,0,1,.13-.28l1.12-2.92c.11-.3.22-.59.34-.89.36-.94.67-1.9,1.11-2.8a2.63,2.63,0,0,1,.35-.93c.32-1,.71-2,1.12-2.91l.18-.68A1.16,1.16,0,0,0,528,377.49Zm-11,7.35c-.19.8-.35,1.62-.48,2.44-.05.33-.19.39-.49.39H511c-.32,0-.48-.05-.47-.44q0-1.19,0-2.37c0-.37.12-.46.46-.45,1,0,1.93,0,2.9,0h2.84C517.08,384.4,517.17,384.48,517.08,384.84Zm1-5.1c-.2.8-.35,1.62-.48,2.44,0,.28-.14.39-.44.39H511c-.35,0-.42-.13-.42-.44,0-.79,0-1.58,0-2.37,0-.37.12-.46.46-.46,1.14,0,2.28,0,3.42,0h3.36C518.12,379.3,518.21,379.38,518.13,379.74Zm6.06,5.08-.93,2.56a.38.38,0,0,1-.42.29h-4.06c-.3,0-.34-.1-.28-.38.18-.79.35-1.58.46-2.39.06-.44.25-.51.64-.5.69,0,1.39,0,2.09,0h2.2C524.2,384.41,524.31,384.51,524.19,384.82Zm2-5c-.31.81-.61,1.62-.89,2.44a.46.46,0,0,1-.51.35h-4.87c-.28,0-.42,0-.34-.39.18-.75.32-1.51.43-2.27.07-.46.23-.65.73-.61.83.05,1.66,0,2.5,0s1.73,0,2.6,0C526.18,379.3,526.29,379.41,526.15,379.78Z"/><path class="cls-134" d="M508.26,389.8v-.29c.27,0,.41.05.43.29"/><path class="cls-135" d="M515.67,389.51c.27,0,.43,0,.39.29h-5.51c0-.24.16-.3.43-.29h2.38"/><path class="cls-136" d="M518,389.8c.06-.23.18-.29.41-.29h3.54c.26,0,.42.05.36.29"/></svg>